<svg width="960" height="540" xmlns="http://www.w3.org/2000/svg" xmlns:xlink="http://www.w3.org/1999/xlink" overflow="hidden"><defs><filter id="fx0" x="-10%" y="-10%" width="120%" height="120%" filterUnits="userSpaceOnUse" primitiveUnits="userSpaceOnUse"><feComponentTransfer color-interpolation-filters="sRGB"><feFuncR type="discrete" tableValues="0 0"/><feFuncG type="discrete" tableValues="0 0"/><feFuncB type="discrete" tableValues="0 0"/><feFuncA type="linear" slope="0.258824" intercept="0"/></feComponentTransfer><feGaussianBlur stdDeviation="4.44444 4.44444"/></filter><filter id="fx1" x="-10%" y="-10%" width="120%" height="120%" filterUnits="userSpaceOnUse" primitiveUnits="userSpaceOnUse"><feComponentTransfer color-interpolation-filters="sRGB"><feFuncR type="discrete" tableValues="0 0"/><feFuncG type="discrete" tableValues="0 0"/><feFuncB type="discrete" tableValues="0 0"/><feFuncA type="linear" slope="0.258824" intercept="0"/></feComponentTransfer><feGaussianBlur stdDeviation="4.44444 4.44444"/></filter><filter id="fx2" x="-10%" y="-10%" width="120%" height="120%" filterUnits="userSpaceOnUse" primitiveUnits="userSpaceOnUse"><feComponentTransfer color-interpolation-filters="sRGB"><feFuncR type="discrete" tableValues="0 0"/><feFuncG type="discrete" tableValues="0 0"/><feFuncB type="discrete" tableValues="0 0"/><feFuncA type="linear" slope="0.258824" intercept="0"/></feComponentTransfer><feGaussianBlur stdDeviation="4.44444 4.44444"/></filter><filter id="fx3" x="-10%" y="-10%" width="120%" height="120%" filterUnits="userSpaceOnUse" primitiveUnits="userSpaceOnUse"><feComponentTransfer color-interpolation-filters="sRGB"><feFuncR type="discrete" tableValues="0 0"/><feFuncG type="discrete" tableValues="0 0"/><feFuncB type="discrete" tableValues="0 0"/><feFuncA type="linear" slope="0.258824" intercept="0"/></feComponentTransfer><feGaussianBlur stdDeviation="4.44444 4.44444"/></filter><filter id="fx4" x="-10%" y="-10%" width="120%" height="120%" filterUnits="userSpaceOnUse" primitiveUnits="userSpaceOnUse"><feComponentTransfer color-interpolation-filters="sRGB"><feFuncR type="discrete" tableValues="0 0"/><feFuncG type="discrete" tableValues="0 0"/><feFuncB type="discrete" tableValues="0 0"/><feFuncA type="linear" slope="0.258824" intercept="0"/></feComponentTransfer><feGaussianBlur stdDeviation="4.44444 4.44444"/></filter><filter id="fx5" x="-10%" y="-10%" width="120%" height="120%" filterUnits="userSpaceOnUse" primitiveUnits="userSpaceOnUse"><feComponentTransfer color-interpolation-filters="sRGB"><feFuncR type="discrete" tableValues="0 0"/><feFuncG type="discrete" tableValues="0 0"/><feFuncB type="discrete" tableValues="0 0"/><feFuncA type="linear" slope="0.258824" intercept="0"/></feComponentTransfer><feGaussianBlur stdDeviation="4.44444 4.44444"/></filter><filter id="fx6" x="-10%" y="-10%" width="120%" height="120%" filterUnits="userSpaceOnUse" primitiveUnits="userSpaceOnUse"><feComponentTransfer color-interpolation-filters="sRGB"><feFuncR type="discrete" tableValues="0 0"/><feFuncG type="discrete" tableValues="0 0"/><feFuncB type="discrete" tableValues="0 0"/><feFuncA type="linear" slope="0.258824" intercept="0"/></feComponentTransfer><feGaussianBlur stdDeviation="4.44444 4.44444"/></filter><filter id="fx7" x="-10%" y="-10%" width="120%" height="120%" filterUnits="userSpaceOnUse" primitiveUnits="userSpaceOnUse"><feComponentTransfer color-interpolation-filters="sRGB"><feFuncR type="discrete" tableValues="0 0"/><feFuncG type="discrete" tableValues="0 0"/><feFuncB type="discrete" tableValues="0 0"/><feFuncA type="linear" slope="0.258824" intercept="0"/></feComponentTransfer><feGaussianBlur stdDeviation="4.44444 4.44444"/></filter><filter id="fx8" x="-10%" y="-10%" width="120%" height="120%" filterUnits="userSpaceOnUse" primitiveUnits="userSpaceOnUse"><feComponentTransfer color-interpolation-filters="sRGB"><feFuncR type="discrete" tableValues="0 0"/><feFuncG type="discrete" tableValues="0 0"/><feFuncB type="discrete" tableValues="0 0"/><feFuncA type="linear" slope="0.258824" intercept="0"/></feComponentTransfer><feGaussianBlur stdDeviation="4.44444 4.44444"/></filter><clipPath id="clip9"><rect x="0" y="0" width="960" height="540"/></clipPath><radialGradient cx="4572000" cy="247650" r="4578702" fx="4572000" fy="247650" gradientUnits="userSpaceOnUse" spreadMethod="pad" id="fill10" gradientTransform="scale(0.000104987 0.000104987)"><stop offset="0" stop-color="#003F77"/><stop offset="0.37" stop-color="#005FAD"/><stop offset="1" stop-color="#0072CE"/></radialGradient><clipPath id="clip11"><path d="M45.6673 161.5C27.9018 161.5 13.5001 175.902 13.5001 193.667L13.5001 322.333C13.5001 340.098 27.9018 354.5 45.6673 354.5L323.333 354.5C341.098 354.5 355.5 340.098 355.5 322.333L355.5 193.667C355.5 175.902 341.098 161.5 323.333 161.5ZM1.43051e-05 8.04663e-06 960 8.04663e-06 960 540 1.43051e-05 540Z" fill-rule="evenodd" clip-rule="evenodd"/></clipPath><clipPath id="clip12"><path d="M776.667 64.5001C757.797 64.5001 742.5 79.7973 742.5 98.6674L742.5 320.333C742.5 339.203 757.797 354.5 776.667 354.5L913.333 354.5C932.203 354.5 947.5 339.203 947.5 320.333L947.5 98.6674C947.5 79.7973 932.203 64.5001 913.333 64.5001ZM1.43051e-05 8.04663e-06 960 8.04663e-06 960 540 1.43051e-05 540Z" fill-rule="evenodd" clip-rule="evenodd"/></clipPath><clipPath id="clip13"><path d="M767.5 379.5C753.693 379.5 742.5 390.693 742.5 404.5L742.5 504.5C742.5 518.307 753.693 529.5 767.5 529.5L922.5 529.5C936.307 529.5 947.5 518.307 947.5 504.5L947.5 404.5C947.5 390.693 936.307 379.5 922.5 379.5ZM1.43051e-05 8.04663e-06 960 8.04663e-06 960 540 1.43051e-05 540Z" fill-rule="evenodd" clip-rule="evenodd"/></clipPath><clipPath id="clip14"><path d="M35.3337 64.5001C28.2459 64.5001 22.5001 70.2459 22.5001 77.3337L22.5001 128.666C22.5001 135.754 28.2459 141.5 35.3337 141.5L164.666 141.5C171.754 141.5 177.5 135.754 177.5 128.666L177.5 77.3337C177.5 70.2459 171.754 64.5001 164.666 64.5001ZM1.43051e-05 8.04663e-06 960 8.04663e-06 960 540 1.43051e-05 540Z" fill-rule="evenodd" clip-rule="evenodd"/></clipPath><clipPath id="clip15"><path d="M409.667 161.5C391.902 161.5 377.5 175.902 377.5 193.667L377.5 322.333C377.5 340.098 391.902 354.5 409.667 354.5L688.333 354.5C706.098 354.5 720.5 340.098 720.5 322.333L720.5 193.667C720.5 175.902 706.098 161.5 688.333 161.5ZM1.43051e-05 8.04663e-06 960 8.04663e-06 960 540 1.43051e-05 540Z" fill-rule="evenodd" clip-rule="evenodd"/></clipPath><clipPath id="clip16"><path d="M38.5002 379.5C24.693 379.5 13.5001 390.693 13.5001 404.5L13.5001 504.5C13.5001 518.307 24.693 529.5 38.5002 529.5L695.5 529.5C709.307 529.5 720.5 518.307 720.5 504.5L720.5 404.5C720.5 390.693 709.307 379.5 695.5 379.5ZM1.43051e-05 8.04663e-06 960 8.04663e-06 960 540 1.43051e-05 540Z" fill-rule="evenodd" clip-rule="evenodd"/></clipPath><clipPath id="clip17"><path d="M212.334 64.5001C205.246 64.5001 199.5 70.2459 199.5 77.3337L199.5 128.666C199.5 135.754 205.246 141.5 212.334 141.5L342.666 141.5C349.754 141.5 355.5 135.754 355.5 128.666L355.5 77.3337C355.5 70.2459 349.754 64.5001 342.666 64.5001ZM1.43051e-05 8.04663e-06 960 8.04663e-06 960 540 1.43051e-05 540Z" fill-rule="evenodd" clip-rule="evenodd"/></clipPath><clipPath id="clip18"><path d="M390.334 64.5001C383.246 64.5001 377.5 70.2459 377.5 77.3337L377.5 128.666C377.5 135.754 383.246 141.5 390.334 141.5L520.666 141.5C527.754 141.5 533.5 135.754 533.5 128.666L533.5 77.3337C533.5 70.2459 527.754 64.5001 520.666 64.5001ZM1.43051e-05 8.04663e-06 960 8.04663e-06 960 540 1.43051e-05 540Z" fill-rule="evenodd" clip-rule="evenodd"/></clipPath><clipPath id="clip19"><path d="M568.334 64.5001C561.246 64.5001 555.5 70.2459 555.5 77.3337L555.5 128.666C555.5 135.754 561.246 141.5 568.334 141.5L697.666 141.5C704.754 141.5 710.5 135.754 710.5 128.666L710.5 77.3337C710.5 70.2459 704.754 64.5001 697.666 64.5001ZM1.43051e-05 8.04663e-06 960 8.04663e-06 960 540 1.43051e-05 540Z" fill-rule="evenodd" clip-rule="evenodd"/></clipPath></defs><g clip-path="url(#clip9)"><rect x="0" y="0" width="960" height="540" fill="#E7E6E6"/><rect x="0" y="0" width="960" height="52" fill="url(#fill10)"/><g clip-path="url(#clip11)"><g filter="url(#fx0)" transform="translate(-7 148)"><g><path d="M15.9275 49.0414C15.9275 30.743 30.7613 15.9092 49.0598 15.9092L335.055 15.9092C353.354 15.9092 368.188 30.743 368.188 49.0414L368.188 181.567C368.188 199.865 353.354 214.699 335.055 214.699L49.0598 214.699C30.7613 214.699 15.9275 199.865 15.9275 181.567Z" stroke="#D9D9D9" stroke-miterlimit="8" fill="#FFFFFF" fill-rule="evenodd"/></g></g></g><path d="M13.5001 193.667C13.5001 175.902 27.9018 161.5 45.6673 161.5L323.333 161.5C341.098 161.5 355.5 175.902 355.5 193.667L355.5 322.333C355.5 340.098 341.098 354.5 323.333 354.5L45.6673 354.5C27.9018 354.5 13.5001 340.098 13.5001 322.333Z" stroke="#D9D9D9" stroke-width="1.33333" stroke-miterlimit="8" fill="#FFFFFF" fill-rule="evenodd"/><g clip-path="url(#clip12)"><g filter="url(#fx1)" transform="translate(724 50)"><g><path d="M15.9825 50.6465C15.9825 31.2103 31.7387 15.4542 51.1749 15.4542L191.94 15.4542C211.376 15.4542 227.133 31.2103 227.133 50.6465L227.133 278.962C227.133 298.398 211.376 314.154 191.94 314.154L51.1749 314.154C31.7387 314.154 15.9825 298.398 15.9825 278.962Z" stroke="#D9D9D9" stroke-miterlimit="8" fill="#FFFFFF" fill-rule="evenodd"/></g></g></g><path d="M742.5 98.6673C742.5 79.7973 757.797 64.5001 776.667 64.5001L913.333 64.5001C932.203 64.5001 947.5 79.7973 947.5 98.6673L947.5 320.333C947.5 339.203 932.203 354.5 913.333 354.5L776.667 354.5C757.797 354.5 742.5 339.203 742.5 320.333Z" stroke="#D9D9D9" stroke-width="1.33333" stroke-miterlimit="8" fill="#FFFFFF" fill-rule="evenodd"/><g clip-path="url(#clip13)"><g filter="url(#fx2)" transform="translate(724 367)"><g><path d="M15.9825 41.3046C15.9825 27.083 27.5114 15.5542 41.733 15.5542L201.382 15.5542C215.604 15.5542 227.133 27.083 227.133 41.3046L227.133 144.304C227.133 158.525 215.604 170.054 201.382 170.054L41.733 170.054C27.5114 170.054 15.9825 158.525 15.9825 144.304Z" stroke="#D9D9D9" stroke-miterlimit="8" fill="#FFFFFF" fill-rule="evenodd"/></g></g></g><path d="M742.5 404.5C742.5 390.693 753.693 379.5 767.5 379.5L922.5 379.5C936.307 379.5 947.5 390.693 947.5 404.5L947.5 504.5C947.5 518.307 936.307 529.5 922.5 529.5L767.5 529.5C753.693 529.5 742.5 518.307 742.5 504.5Z" stroke="#D9D9D9" stroke-width="1.33333" stroke-miterlimit="8" fill="#FFFFFF" fill-rule="evenodd"/><g clip-path="url(#clip14)"><g filter="url(#fx3)" transform="translate(5 53)"><g><path d="M15.7325 28.8678C15.7325 21.5674 21.6507 15.6492 28.9512 15.6492L162.164 15.6492C169.464 15.6492 175.383 21.5674 175.383 28.8678L175.383 81.7405C175.383 89.041 169.464 94.9592 162.164 94.9592L28.9512 94.9592C21.6507 94.9592 15.7325 89.041 15.7325 81.7405Z" stroke="#D9D9D9" stroke-miterlimit="8" fill="#FFFFFF" fill-rule="evenodd"/></g></g></g><path d="M22.5001 77.3337C22.5001 70.2459 28.2459 64.5001 35.3337 64.5001L164.666 64.5001C171.754 64.5001 177.5 70.2459 177.5 77.3337L177.5 128.666C177.5 135.754 171.754 141.5 164.666 141.5L35.3337 141.5C28.2459 141.5 22.5001 135.754 22.5001 128.666Z" stroke="#D9D9D9" stroke-width="1.33333" stroke-miterlimit="8" fill="#FFFFFF" fill-rule="evenodd"/><g clip-path="url(#clip15)"><g filter="url(#fx4)" transform="translate(357 148)"><g><path d="M15.9125 49.0413C15.9125 30.7429 30.7463 15.9092 49.0447 15.9092L336.07 15.9092C354.369 15.9092 369.203 30.7429 369.203 49.0413L369.203 181.567C369.203 199.865 354.369 214.699 336.07 214.699L49.0447 214.699C30.7463 214.699 15.9125 199.865 15.9125 181.567Z" stroke="#D9D9D9" stroke-miterlimit="8" fill="#FFFFFF" fill-rule="evenodd"/></g></g></g><path d="M377.5 193.667C377.5 175.902 391.902 161.5 409.667 161.5L688.333 161.5C706.098 161.5 720.5 175.902 720.5 193.667L720.5 322.333C720.5 340.098 706.098 354.5 688.333 354.5L409.667 354.5C391.902 354.5 377.5 340.098 377.5 322.333Z" stroke="#D9D9D9" stroke-width="1.33333" stroke-miterlimit="8" fill="#FFFFFF" fill-rule="evenodd"/><g clip-path="url(#clip16)"><g filter="url(#fx5)" transform="translate(-12 367)"><g><path d="M15.4525 41.3044C15.4525 27.083 26.9813 15.5542 41.2027 15.5542L717.912 15.5542C732.134 15.5542 743.663 27.083 743.663 41.3044L743.663 144.304C743.663 158.525 732.134 170.054 717.912 170.054L41.2027 170.054C26.9813 170.054 15.4525 158.525 15.4525 144.304Z" stroke="#D9D9D9" stroke-miterlimit="8" fill="#FFFFFF" fill-rule="evenodd"/></g></g></g><path d="M13.5001 404.5C13.5001 390.693 24.693 379.5 38.5002 379.5L695.5 379.5C709.307 379.5 720.5 390.693 720.5 404.5L720.5 504.5C720.5 518.307 709.307 529.5 695.5 529.5L38.5002 529.5C24.693 529.5 13.5001 518.307 13.5001 504.5Z" stroke="#D9D9D9" stroke-width="1.33333" stroke-miterlimit="8" fill="#FFFFFF" fill-rule="evenodd"/><g clip-path="url(#clip17)"><g filter="url(#fx6)" transform="translate(182 53)"><g><path d="M15.7175 28.8679C15.7175 21.5674 21.6357 15.6492 28.9362 15.6492L163.179 15.6492C170.479 15.6492 176.398 21.5674 176.398 28.8679L176.398 81.7405C176.398 89.041 170.479 94.9592 163.179 94.9592L28.9362 94.9592C21.6357 94.9592 15.7175 89.041 15.7175 81.7405Z" stroke="#D9D9D9" stroke-miterlimit="8" fill="#FFFFFF" fill-rule="evenodd"/></g></g></g><path d="M199.5 77.3337C199.5 70.2459 205.246 64.5001 212.334 64.5001L342.666 64.5001C349.754 64.5001 355.5 70.2459 355.5 77.3337L355.5 128.666C355.5 135.754 349.754 141.5 342.666 141.5L212.334 141.5C205.246 141.5 199.5 135.754 199.5 128.666Z" stroke="#D9D9D9" stroke-width="1.33333" stroke-miterlimit="8" fill="#FFFFFF" fill-rule="evenodd"/><g clip-path="url(#clip18)"><g filter="url(#fx7)" transform="translate(360 53)"><g><path d="M15.7175 28.8679C15.7175 21.5674 21.6357 15.6492 28.9362 15.6492L163.179 15.6492C170.479 15.6492 176.398 21.5674 176.398 28.8679L176.398 81.7405C176.398 89.041 170.479 94.9592 163.179 94.9592L28.9362 94.9592C21.6357 94.9592 15.7175 89.041 15.7175 81.7405Z" stroke="#D9D9D9" stroke-miterlimit="8" fill="#FFFFFF" fill-rule="evenodd"/></g></g></g><path d="M377.5 77.3337C377.5 70.2459 383.246 64.5001 390.334 64.5001L520.666 64.5001C527.754 64.5001 533.5 70.2459 533.5 77.3337L533.5 128.666C533.5 135.754 527.754 141.5 520.666 141.5L390.334 141.5C383.246 141.5 377.5 135.754 377.5 128.666Z" stroke="#D9D9D9" stroke-width="1.33333" stroke-miterlimit="8" fill="#FFFFFF" fill-rule="evenodd"/><g clip-path="url(#clip19)"><g filter="url(#fx8)" transform="translate(538 53)"><g><path d="M15.7325 28.8678C15.7325 21.5674 21.6507 15.6492 28.9512 15.6492L162.164 15.6492C169.464 15.6492 175.383 21.5674 175.383 28.8678L175.383 81.7405C175.383 89.041 169.464 94.9592 162.164 94.9592L28.9512 94.9592C21.6507 94.9592 15.7325 89.041 15.7325 81.7405Z" stroke="#D9D9D9" stroke-miterlimit="8" fill="#FFFFFF" fill-rule="evenodd"/></g></g></g><path d="M555.5 77.3337C555.5 70.2459 561.246 64.5001 568.334 64.5001L697.666 64.5001C704.754 64.5001 710.5 70.2459 710.5 77.3337L710.5 128.666C710.5 135.754 704.754 141.5 697.666 141.5L568.334 141.5C561.246 141.5 555.5 135.754 555.5 128.666Z" stroke="#D9D9D9" stroke-width="1.33333" stroke-miterlimit="8" fill="#FFFFFF" fill-rule="evenodd"/></g></svg>